<?xml version="1.0" encoding="utf-8"?>
<!-- Uploaded to: SVG Repo, www.svgrepo.com, Generator: SVG Repo Mixer Tools -->
<svg width="800px" height="800px" viewBox="0 0 1024 1024" class="icon"  version="1.1" xmlns="http://www.w3.org/2000/svg"><path d="M960 192H64v640h896V192zM469.333333 789.333333v-85.333333h85.333334v85.333333h-85.333334z m170.666667 0v-85.333333h85.333333v85.333333h-85.333333z m170.666667 0v-85.333333h85.333333v85.333333h-85.333333z m-512 0v-85.333333h85.333333v85.333333h-85.333333z m-170.666667 0v-85.333333h85.333333v85.333333H128z m341.333333-469.333333v-85.333333h85.333334v85.333333h-85.333334z m170.666667 0v-85.333333h85.333333v85.333333h-85.333333z m170.666667 0v-85.333333h85.333333v85.333333h-85.333333z m-512 0v-85.333333h85.333333v85.333333h-85.333333z m-170.666667 0v-85.333333h85.333333v85.333333H128z" fill="#3F51B5" /></svg>